<?xml version="1.0" encoding="UTF-8" standalone="no"?>
<svg
   xmlns:dc="http://purl.org/dc/elements/1.1/"
   xmlns:cc="http://creativecommons.org/ns#"
   xmlns:rdf="http://www.w3.org/1999/02/22-rdf-syntax-ns#"
   xmlns:svg="http://www.w3.org/2000/svg"
   xmlns="http://www.w3.org/2000/svg"
   xmlns:sodipodi="http://sodipodi.sourceforge.net/DTD/sodipodi-0.dtd"
   xmlns:inkscape="http://www.inkscape.org/namespaces/inkscape"
   version="1.1"
   id="svg2"
   xml:space="preserve"
   width="244"
   height="161.33333"
   viewBox="0 0 244 161.33333"
   sodipodi:docname="KRETINGA_logotipas_1.svg"
   inkscape:version="1.0.2 (1.0.2+r75+1)"><metadata
     id="metadata8"><rdf:RDF><cc:Work
         rdf:about=""><dc:format>image/svg+xml</dc:format><dc:type
           rdf:resource="http://purl.org/dc/dcmitype/StillImage" /><dc:title></dc:title></cc:Work></rdf:RDF></metadata><defs
     id="defs6" /><sodipodi:namedview
     pagecolor="#ffffff"
     bordercolor="#666666"
     borderopacity="1"
     objecttolerance="10"
     gridtolerance="10"
     guidetolerance="10"
     inkscape:pageopacity="0"
     inkscape:pageshadow="2"
     inkscape:window-width="1870"
     inkscape:window-height="1016"
     id="namedview4"
     showgrid="false"
     inkscape:zoom="5.3429754"
     inkscape:cx="122"
     inkscape:cy="80.666664"
     inkscape:window-x="50"
     inkscape:window-y="27"
     inkscape:window-maximized="1"
     inkscape:current-layer="g10" /><g
     id="g10"
     inkscape:groupmode="layer"
     inkscape:label="ink_ext_XXXXXX"
     transform="matrix(1.3333333,0,0,-1.3333333,0,161.33333)"><g
       id="g12"
       transform="scale(0.1)"><g
         id="g14"
         transform="matrix(0,1.00171,0.998286,0,0,0)"><path
           d="M 905.09,12.8971 C 408.952,21.4704 11.2853,422.079 11.2853,913.315 c 0,401.765 268.8287,754.925 658.9407,865.665"
           style="fill:none;stroke:#231f20;stroke-width:15.0012;stroke-linecap:butt;stroke-linejoin:miter;stroke-miterlimit:2.61313;stroke-dasharray:none;stroke-opacity:1"
           id="path16" /></g><g
         id="g18"
         transform="matrix(0,-1.00054,-0.999455,0,0,0)"><path
           d="m -289.787,-1815.83 c -502.891,8.6 -905.973,410.57 -905.973,903.47 0,403.126 272.486,757.483 667.907,868.6018"
           style="fill:none;stroke:#231f20;stroke-width:14.9826;stroke-linecap:butt;stroke-linejoin:miter;stroke-miterlimit:2.61313;stroke-dasharray:none;stroke-opacity:1"
           id="path20" /></g><path
         d="m 913.855,1053.89 c 248.025,0 449.095,-201.066 449.095,-449.089 0,-248.028 -201.07,-449.09 -449.095,-449.09 -248.027,0 -449.089,201.062 -449.089,449.09 0,248.023 201.062,449.089 449.089,449.089"
         style="fill:#fcd79d;fill-opacity:1;fill-rule:evenodd;stroke:none"
         id="path22" /><path
         d="m 316.305,529.762 v 148.172 h 19.265 v -67.383 l 62.231,67.383 h 24.375 l -67.805,-74.082 67.805,-74.09 h -24.375 l -62.231,67.277 v -67.277 z m 162.527,0 v 148.172 h 52.109 c 7.797,0 14.786,-1.34 20.957,-4.02 6.141,-2.684 11.469,-6.351 15.911,-11.008 4.445,-4.66 7.871,-10.019 10.265,-16.121 2.438,-6.105 3.633,-12.527 3.633,-19.262 0,-5.363 -0.738,-10.55 -2.219,-15.519 -1.488,-4.981 -3.668,-9.496 -6.566,-13.586 -2.891,-4.094 -6.383,-7.691 -10.406,-10.871 -4.02,-3.133 -8.571,-5.609 -13.614,-7.297 l 31.145,-50.488 h -22.043 l -29.426,47.418 h -30.476 v -47.418 z m 19.27,64.773 h 32.839 c 4.836,0 9.176,0.883 13.02,2.649 3.844,1.761 7.16,4.093 9.914,7.054 2.75,2.961 4.867,6.457 6.348,10.512 1.48,4.02 2.222,8.289 2.222,12.773 0,4.34 -0.742,8.497 -2.222,12.524 -1.481,4.058 -3.598,7.586 -6.348,10.617 -2.754,3.031 -6.07,5.434 -9.984,7.234 -3.883,1.801 -8.184,2.68 -12.95,2.68 h -32.839 z m 146.687,-64.773 v 148.172 h 83.191 v -17.356 h -63.925 v -48.473 h 63.925 v -17.359 h -63.925 v -47.625 h 63.925 v -17.359 z m 139.07,130.816 v 17.356 h 95.676 V 660.578 H 841.223 V 529.762 H 821.961 V 660.578 Z M 936.375,529.762 v 148.172 h 19.898 V 529.762 Z m 90.605,0 v 148.172 h 21.45 l 66.61,-114.477 v 114.477 h 19.25 V 529.762 h -21.41 l -66.63,114.48 v -114.48 z m 170.12,73.523 c 0,10.125 1.76,19.934 5.29,29.383 3.49,9.492 8.54,17.824 15.03,24.984 6.53,7.157 14.47,12.907 23.78,17.211 9.31,4.305 19.76,6.461 31.36,6.461 8.43,0 16.22,-1.168 23.42,-3.461 7.16,-2.293 13.51,-5.429 18.98,-9.457 5.5,-4.019 9.99,-8.707 13.41,-14.14 3.42,-5.438 5.64,-11.223 6.59,-17.395 h -19.33 c -0.95,3.774 -2.68,7.297 -5.15,10.617 -2.47,3.317 -5.54,6.207 -9.24,8.61 -3.67,2.433 -7.9,4.371 -12.67,5.75 -4.76,1.414 -9.98,2.117 -15.62,2.117 -8.72,0 -16.52,-1.66 -23.43,-4.977 -6.91,-3.281 -12.8,-7.758 -17.63,-13.441 -4.84,-5.645 -8.55,-12.102 -11.09,-19.367 -2.53,-7.27 -3.8,-14.852 -3.8,-22.719 0,-7.617 1.23,-15.066 3.7,-22.262 2.47,-7.191 6.14,-13.578 10.97,-19.156 4.87,-5.609 10.9,-10.055 18.17,-13.332 7.23,-3.316 15.59,-4.977 25.09,-4.977 7.26,0 13.72,1.024 19.36,3.106 5.65,2.047 10.51,4.867 14.61,8.359 4.09,3.528 7.3,7.727 9.66,12.559 2.36,4.871 4.02,10.199 4.9,15.98 h -34.92 v 17.356 h 71.12 v -17.356 h -15.87 c -1.38,-8.461 -3.92,-16.226 -7.66,-23.246 -3.74,-7.023 -8.58,-13.09 -14.46,-18.203 -5.93,-5.078 -12.84,-9.035 -20.75,-11.785 -7.94,-2.75 -16.82,-4.129 -26.7,-4.129 -12.56,0 -23.61,2.156 -33.13,6.457 -9.52,4.305 -17.57,10.023 -24.17,17.148 -6.6,7.165 -11.54,15.348 -14.85,24.551 -3.32,9.242 -4.97,18.809 -4.97,28.754 z m 201.73,-73.523 51.08,148.172 h 13.93 l 51.27,-148.172 h -20.36 l -7.86,22.859 h -60.05 l -7.66,-22.859 z m 33.9,40.218 h 48.26 l -23.95,76.344 z"
         style="fill:#231f20;fill-opacity:1;fill-rule:nonzero;stroke:none"
         id="path24" /></g></g></svg>
